# xmcd
#
# Track frame offsets: 
#        150
#        14540
#        29695
#        41080
#        51467
#        69090
#        84492
#        94687
#        106630
#        122077
#        135207
#        149917
#        161387
#        177617
#        192455
#        200882
#        214050
#        227820
#        242002
#        251817
#        267102
#        280155
#        294522
#        305250
#
# Disc length: 4239 seconds
#
# Revision: 0
# Processed by: cddbd v1.5.2PL0 Copyright (c) Steve Scherf et al.
# Submitted via: ExactAudioCopyFreeDBPlugin 1.0
#
DISCID=69108d18
DTITLE=The Statler Brothers - Thank You World and Sons Of The Motherland
DYEAR=2012
DGENRE=Country
TTITLE0=Thank You World
TTITLE1=City Lights
TTITLE2=Sweet Charlotte Ann
TTITLE3=Left Handed Woman
TTITLE4=Blackwood Brothers By The Statler Brothers
TTITLE5=Cowboy Buckaroo
TTITLE6=She's Too Good
TTITLE7=Baptism Of Jesse Taylor
TTITLE8=The Streets Of Baltimore
TTITLE9=Margie's At The Lincoln Park Inn
TTITLE10=The Boy Inside Of Me
TTITLE11=All American Girl
TTITLE12=Letter From Shirley Miller
TTITLE13=Few Old Memories
TTITLE14=You Can't Judge A Good Book By Its Cover
TTITLE15=Together
TTITLE16=Susan When She Tried
TTITLE17=You've Been Like A Mother To Me
TTITLE18=Eight More Miles To Louisville
TTITLE19=One More Summer In Virginia
TTITLE20=I'll Be Here
TTITLE21=So Mary Could Make It Home
TTITLE22=Flowers On The Wall [bonus track]
TTITLE23=I'll Go To My Grave Loving You [bonus track]
EXTD=
EXTT0=
EXTT1=
EXTT2=
EXTT3=
EXTT4=
EXTT5=
EXTT6=
EXTT7=
EXTT8=
EXTT9=
EXTT10=
EXTT11=
EXTT12=
EXTT13=
EXTT14=
EXTT15=
EXTT16=
EXTT17=
EXTT18=
EXTT19=
EXTT20=
EXTT21=
EXTT22=
EXTT23=
PLAYORDER=
